<svg id="Layer_1" data-name="Layer 1" xmlns="http://www.w3.org/2000/svg" viewBox="0 0 243.62 243.62"><defs><style>.cls-1{fill:none;}.cls-2{fill:#133233;fill-rule:evenodd;}</style></defs><g id="hdvXGs"><path class="cls-1" d="M209.38,155.81c0,26.5,0,53,.07,79.5,0,2.15-.42,2.56-2.57,2.56q-83.49-.12-167,0c-2.14,0-2.56-.41-2.56-2.56q.12-112.5,0-225c0-2.15.42-2.57,2.56-2.56,27.84.09,55.67.06,83.5.06a4.09,4.09,0,0,0-1.94,5.4A3.42,3.42,0,0,0,124,14.76c.53,0,1.72-1.28,1.66-1.9a29.48,29.48,0,0,0-1.29-5c27.5,0,55,0,82.5-.06,2.15,0,2.57.41,2.56,2.56q-.12,70.25-.06,140.5c-3.48-6.57-8.72-10.9-16.15-12.06-9.69-1.5-19.4-2.81-29.12-4.12-8.07-1.09-16.17-2-24.24-3.07-3.71-.5-5.5-1.78-5.31-3.49s2.1-2.38,6-1.65c10.93,2.08,21.83,4.44,32.82,6.13a141.39,141.39,0,0,0,20.37,1.35c4.15,0,8.32-1,10.41-5.47,3-6.57.37-13.64-6.59-15.68A53.07,53.07,0,0,0,184.3,111c-5-.13-10,.47-14.93.78s-9.94.66-14.91,1c-4.47.28-9,.77-13.41.71a33.67,33.67,0,0,1-8.32-1.52c-2.38-.65-2.67-2.32-.81-3.94a10.78,10.78,0,0,1,3-1.75c3.66-1.51,7.45-1.34,11.31-.94,4.11.43,8.26.6,12.39.81,2,.1,4,0,6,.08,6.31.25,12.62.66,18.93.77a20.24,20.24,0,0,0,6.34-1,9.07,9.07,0,0,0,6.48-9,8.68,8.68,0,0,0-6.5-8.9,23.78,23.78,0,0,0-7.33-1.23,108.66,108.66,0,0,0-14.86,1.44c-8,1.41-15.94,3.37-23.95,4.89a39.65,39.65,0,0,1-8.44.48c-.9,0-2.56-1.25-2.5-1.76a4,4,0,0,1,1.88-2.93,33.4,33.4,0,0,1,7.71-1.81c10.24-1.16,20.51-2.07,30.75-3.26a14.71,14.71,0,0,0,9-3.91c2.72-2.69,2.9-5.94,2.12-9.28s-3.72-3.79-6.32-3.88a45.1,45.1,0,0,0-11.39.65c-7.94,1.79-15.76,4.15-23.62,6.27a51.09,51.09,0,0,1-6.75,1.74c-1.05.13-2.23-.83-3.35-1.3.74-.76,1.35-1.84,2.25-2.22A45.6,45.6,0,0,1,141.24,70c6.77-1.73,13.58-3.32,20.33-5.12a16.86,16.86,0,0,0,9.22-5.64c1.89-2.41,2.56-5.17,1.22-8-1.42-2.94-4.32-3.72-7.23-3.28a45.49,45.49,0,0,0-9.63,2.51c-5.73,2.25-11.3,4.9-17,7.33a31.29,31.29,0,0,1-5.14,1.79c-.64.15-2.07-.44-2.08-.75-.05-.84.22-2.16.81-2.5A54.39,54.39,0,0,1,139,53c4.5-1.74,9.08-3.29,13.6-5a12.36,12.36,0,0,0,6.82-5.57c2.06-3.72.47-6.64-3.74-6.87a22,22,0,0,0-11.06,2.61c-3.88,1.93-7.73,3.92-11.65,5.75a7.92,7.92,0,0,1-2.78.2c.43-1,.62-2.29,1.36-2.78,2.35-1.54,4.91-2.77,7.39-4.12a59.78,59.78,0,0,0,6.53-3.61c2.81-2,3.73-5.39,2.4-7.39-1.11-1.68-4.53-2.28-7.38-.83a62,62,0,0,0-6.63,4.41,17.23,17.23,0,0,1-3.3,2.17c-.68.26-1.68-.35-2.53-.57.26-.7.33-1.61.82-2.07,1.7-1.59,3.61-2.95,5.32-4.53,1.33-1.23,2.89-2.55,1.77-4.69-1.22-2.33-3.09-1.23-4.8-.72-.79.24-1.58.53-2.36.82-3.55,1.28-7,1.73-10.66.05a12.48,12.48,0,0,0-4.36-1,2.19,2.19,0,0,0-2.26,3.32,11.5,11.5,0,0,0,2.5,3c1.06,1.05,2.36,1.87,3.32,3a2.19,2.19,0,0,1,.07,2.12,2.49,2.49,0,0,1-2.18.58,13,13,0,0,1-2.48-1.64c-3-1.76-6-3.67-9.12-5.13a4.42,4.42,0,0,0-4,.42,4.92,4.92,0,0,0-.9,4.07,7.9,7.9,0,0,0,2.67,4,60.24,60.24,0,0,0,7.21,4.35c2.74,1.54,5.56,2.92,8.25,4.54.53.31.61,1.38.9,2.11-.79.13-1.73.6-2.35.33a79.64,79.64,0,0,1-9-4.27c-4.38-2.55-8.93-4.59-14-4.94a6.57,6.57,0,0,0-4.75,1.76,4.61,4.61,0,0,0-.25,5.59,12.64,12.64,0,0,0,6.84,5.53c5.15,1.9,10.36,3.65,15.5,5.57a36.65,36.65,0,0,1,5.82,2.8c.69.41,1,1.51,1.44,2.29-.85.36-1.86,1.22-2.52,1-3-1-5.89-2.19-8.79-3.39-6.29-2.59-12.49-5.43-18.88-7.75a19.37,19.37,0,0,0-7.86-.7A5.34,5.34,0,0,0,74,53.77c.3,3,1.14,6.08,4,7.73a37.51,37.51,0,0,0,9,4.2c6.57,1.76,13.31,2.88,19.94,4.45a46.41,46.41,0,0,1,7,2.56,1.83,1.83,0,0,1,.86,1.55c-.1.49-.9,1.22-1.36,1.18a30.94,30.94,0,0,1-5.84-.86c-9-2.45-17.9-5.15-26.92-7.45a24.65,24.65,0,0,0-12.82-.27c-3.94,1.09-5.78,3.81-5.26,7.86.43,3.37,2.05,6.07,5.27,7.34a28.66,28.66,0,0,0,7.21,1.86c10.23,1.16,20.5,2,30.74,3.22a31.92,31.92,0,0,1,7.15,2c.79.29,2,1.65,1.8,2-.45.93-1.4,2.14-2.29,2.26a24.16,24.16,0,0,1-7,0c-5.41-.88-10.77-2.07-16.16-3.12C83.47,89.13,77.63,87.74,71.71,87c-4.77-.65-9.65-.83-14.34.87-4.36,1.57-6.48,4.43-6.7,9A9.09,9.09,0,0,0,57,106a19.69,19.69,0,0,0,6.35,1,342.22,342.22,0,0,0,38.8-1.81,26.74,26.74,0,0,1,8.83.9,7.41,7.41,0,0,1,3.73,3c1.13,1.6.26,3.32-1.81,3.46-5.61.36-11.26.73-16.88.57-6.3-.17-12.58-.92-18.87-1.4-4.14-.31-8.29-.51-12.42-.92a31,31,0,0,0-16.58,2.57c-5,2.34-7,7.36-5.8,14.12.6,3.47,4,6.1,9.06,6.38a67.08,67.08,0,0,0,14-.25c13.61-2.21,27.13-4.93,40.71-7.33a16.31,16.31,0,0,1,5.91.07c.78.15,1.55,1.59,1.82,2.58.1.35-1.22,1.45-2,1.63-3.56.79-7.16,1.52-10.78,2-15.64,2.1-31.32,4-46.94,6.25-3.52.52-6.85,2.44-10.24,3.77-4.72,1.84-6.49,10.94-4.83,14.51,1.32,2.84,3.44,4.66,6.47,4.79,7.65.34,15.28.65,22.73-2,11-4,22-7.65,33-11.43a52,52,0,0,1,7.17-2.11,3.5,3.5,0,0,1,2.66,1.49c.27.39-.43,2-1.08,2.39a22.68,22.68,0,0,1-5.5,2.31c-11.92,3.08-23.88,6-35.79,9.1-7.55,2-15.12,3.95-22.54,6.38-4,1.31-6.9,4.32-6.7,9a10.64,10.64,0,0,0,7.1,10c3.88,1.58,7.82,1.25,11.79.5,9.69-1.83,17.9-7.06,26.5-11.43,7.41-3.77,14.93-7.31,22.44-10.86a13.41,13.41,0,0,1,4.33-1.1,2.48,2.48,0,0,1,2,1,2.44,2.44,0,0,1-.28,2.23,10.66,10.66,0,0,1-3,2.51,70.81,70.81,0,0,1-8.12,3.85c-10.44,3.93-20.9,7.81-31.43,11.51a15.27,15.27,0,0,0-7.19,5.11c-1.88,2.4-1.4,4.41,1.4,5.52a21.28,21.28,0,0,0,5.31,1.18c8.93,1,16.65-2.38,24.1-6.72,3.31-1.93,6.52-4.07,10-5.66a27.34,27.34,0,0,1,7.2-1.63c.61-.09,1.35.73,2,1.12a12.74,12.74,0,0,1-1,1.57,7.2,7.2,0,0,1-1.19.91c-5.14,3.81-5.41,8.95.17,12,2.1,1.13,2.86,3,2.74,5.43-.14,3-.13,6,0,9,.16,4.65.18,9.33.72,13.94,1.25,10.83,5.18,9.1,12,9.12,2.61,0,4-1.31,4.56-3.71.34-1.46.6-2.93.92-4.39,1.35-6.14.63-12.27-.24-18.36a12.77,12.77,0,0,1,4.18-12.11c3.95-3.65,3.93-4.8.68-9.28-.29-.41-.81-.74-.9-1.17-.19-.91-.52-2.1-.11-2.72a3,3,0,0,1,2.52-1,18.07,18.07,0,0,1,4.72,1.57c4.64,2.24,9.18,4.73,13.86,6.89,7.07,3.26,14.41,5.22,22.29,3.59,1.5-.31,3.32-.66,3.19-2.5a6,6,0,0,0-2-3.7,19.47,19.47,0,0,0-5.14-3c-6.6-2.78-13.29-5.35-19.88-8.13-6.28-2.65-12.54-5.38-18.71-8.27-1.73-.81-3.93-2.23-2.77-4.55,1-2.05,3.28-1.06,4.93-.43,3.88,1.49,7.8,3,11.52,4.8,7.16,3.55,14.24,7.26,21.27,11.07a60.9,60.9,0,0,0,20.2,6.9,18.25,18.25,0,0,0,8.29-.82c4.42-1.52,6.16-5.58,6.59-9.83.41-4-1.82-7-5.63-8.52a53.29,53.29,0,0,0-7-2.6c-12.42-3.12-24.9-6-37.29-9.2-7.08-1.85-14-4.22-21-6.45-.82-.26-1.45-1.11-2.16-1.68.82-.74,1.54-1.83,2.5-2.13a6.58,6.58,0,0,1,3.41.26c3.69,1,7.39,2,11,3.23,8.66,3,17.24,6.19,25.92,9.12a60.26,60.26,0,0,0,20.08,3.32C202.32,162.1,206.58,160.68,209.38,155.81Z"/><path class="cls-2" d="M209.38,155.81c-2.8,4.87-7.06,6.29-12.56,6.35a60.26,60.26,0,0,1-20.08-3.32c-8.68-2.93-17.26-6.14-25.92-9.12-3.61-1.24-7.31-2.23-11-3.23a6.58,6.58,0,0,0-3.41-.26c-1,.3-1.68,1.39-2.5,2.13.71.57,1.34,1.42,2.16,1.68,7,2.23,13.91,4.6,21,6.45,12.39,3.23,24.87,6.08,37.29,9.2a53.29,53.29,0,0,1,7,2.6c3.81,1.54,6,4.49,5.63,8.52-.43,4.25-2.17,8.31-6.59,9.83a18.25,18.25,0,0,1-8.29.82,60.9,60.9,0,0,1-20.2-6.9c-7-3.81-14.11-7.52-21.27-11.07-3.72-1.84-7.64-3.31-11.52-4.8-1.65-.63-3.9-1.62-4.93.43-1.16,2.32,1,3.74,2.77,4.55,6.17,2.89,12.43,5.62,18.71,8.27,6.59,2.78,13.28,5.35,19.88,8.13a19.47,19.47,0,0,1,5.14,3,6,6,0,0,1,2,3.7c.13,1.84-1.69,2.19-3.19,2.5-7.88,1.63-15.22-.33-22.29-3.59-4.68-2.16-9.22-4.65-13.86-6.89a18.07,18.07,0,0,0-4.72-1.57,3,3,0,0,0-2.52,1c-.41.62-.08,1.81.11,2.72.09.43.61.76.9,1.17,3.25,4.48,3.27,5.63-.68,9.28a12.77,12.77,0,0,0-4.18,12.11c.87,6.09,1.59,12.22.24,18.36-.32,1.46-.58,2.93-.92,4.39-.56,2.4-1.95,3.72-4.56,3.71-6.84,0-10.77,1.71-12-9.12-.54-4.61-.56-9.29-.72-13.94-.1-3-.11-6,0-9,.12-2.41-.64-4.3-2.74-5.43-5.58-3-5.31-8.15-.17-12a7.2,7.2,0,0,0,1.19-.91,12.74,12.74,0,0,0,1-1.57c-.67-.39-1.41-1.21-2-1.12a27.34,27.34,0,0,0-7.2,1.63c-3.47,1.59-6.68,3.73-10,5.66-7.45,4.34-15.17,7.75-24.1,6.72a21.28,21.28,0,0,1-5.31-1.18c-2.8-1.11-3.28-3.12-1.4-5.52a15.27,15.27,0,0,1,7.19-5.11c10.53-3.7,21-7.58,31.43-11.51a70.81,70.81,0,0,0,8.12-3.85,10.66,10.66,0,0,0,3-2.51,2.44,2.44,0,0,0,.28-2.23,2.48,2.48,0,0,0-2-1,13.41,13.41,0,0,0-4.33,1.1c-7.51,3.55-15,7.09-22.44,10.86-8.6,4.37-16.81,9.6-26.5,11.43-4,.75-7.91,1.08-11.79-.5a10.64,10.64,0,0,1-7.1-10c-.2-4.64,2.69-7.65,6.7-9,7.42-2.43,15-4.41,22.54-6.38,11.91-3.1,23.87-6,35.79-9.1a22.68,22.68,0,0,0,5.5-2.31c.65-.37,1.35-2,1.08-2.39a3.5,3.5,0,0,0-2.66-1.49,52,52,0,0,0-7.17,2.11c-11,3.78-22.08,7.47-33,11.43-7.45,2.7-15.08,2.39-22.73,2-3-.13-5.15-1.95-6.47-4.79-1.66-3.57.11-12.67,4.83-14.51,3.39-1.33,6.72-3.25,10.24-3.77,15.62-2.3,31.3-4.15,46.94-6.25,3.62-.48,7.22-1.21,10.78-2,.81-.18,2.13-1.28,2-1.63-.27-1-1-2.43-1.82-2.58a16.31,16.31,0,0,0-5.91-.07c-13.58,2.4-27.1,5.12-40.71,7.33a67.08,67.08,0,0,1-14,.25c-5.09-.28-8.46-2.91-9.06-6.38-1.16-6.76.81-11.78,5.8-14.12a31,31,0,0,1,16.58-2.57c4.13.41,8.28.61,12.42.92,6.29.48,12.57,1.23,18.87,1.4,5.62.16,11.27-.21,16.88-.57,2.07-.14,2.94-1.86,1.81-3.46a7.41,7.41,0,0,0-3.73-3,26.74,26.74,0,0,0-8.83-.9A342.22,342.22,0,0,1,63.33,107,19.69,19.69,0,0,1,57,106a9.09,9.09,0,0,1-6.31-9.22c.22-4.54,2.34-7.4,6.7-9,4.69-1.7,9.57-1.52,14.34-.87,5.92.79,11.76,2.18,17.63,3.33,5.39,1,10.75,2.24,16.16,3.12a24.16,24.16,0,0,0,7,0c.89-.12,1.84-1.33,2.29-2.26.16-.32-1-1.68-1.8-2a31.92,31.92,0,0,0-7.15-2C95.55,86,85.28,85.08,75.05,83.92a28.66,28.66,0,0,1-7.21-1.86c-3.22-1.27-4.84-4-5.27-7.34-.52-4,1.32-6.77,5.26-7.86a24.65,24.65,0,0,1,12.82.27c9,2.3,17.94,5,26.92,7.45a30.94,30.94,0,0,0,5.84.86c.46,0,1.26-.69,1.36-1.18a1.83,1.83,0,0,0-.86-1.55,46.41,46.41,0,0,0-7-2.56C100.27,68.58,93.53,67.46,87,65.7a37.51,37.51,0,0,1-9-4.2c-2.82-1.65-3.66-4.71-4-7.73A5.34,5.34,0,0,1,79,47.88a19.37,19.37,0,0,1,7.86.7c6.39,2.32,12.59,5.16,18.88,7.75,2.9,1.2,5.8,2.43,8.79,3.39.66.21,1.67-.65,2.52-1-.47-.78-.75-1.88-1.44-2.29a36.65,36.65,0,0,0-5.82-2.8C104.61,51.7,99.4,50,94.25,48.05a12.64,12.64,0,0,1-6.84-5.53,4.61,4.61,0,0,1,.25-5.59,6.57,6.57,0,0,1,4.75-1.76c5,.35,9.6,2.39,14,4.94a79.64,79.64,0,0,0,9,4.27c.62.27,1.56-.2,2.35-.33-.29-.73-.37-1.8-.9-2.11-2.69-1.62-5.51-3-8.25-4.54a60.24,60.24,0,0,1-7.21-4.35,7.9,7.9,0,0,1-2.67-4,4.92,4.92,0,0,1,.9-4.07,4.42,4.42,0,0,1,4-.42c3.16,1.46,6.11,3.37,9.12,5.13a13,13,0,0,0,2.48,1.64,2.49,2.49,0,0,0,2.18-.58,2.19,2.19,0,0,0-.07-2.12c-1-1.12-2.26-1.94-3.32-3a11.5,11.5,0,0,1-2.5-3,2.19,2.19,0,0,1,2.26-3.32,12.48,12.48,0,0,1,4.36,1c3.61,1.68,7.11,1.23,10.66-.05.78-.29,1.57-.58,2.36-.82,1.71-.51,3.58-1.61,4.8.72,1.12,2.14-.44,3.46-1.77,4.69-1.71,1.58-3.62,2.94-5.32,4.53-.49.46-.56,1.37-.82,2.07.85.22,1.85.83,2.53.57a17.23,17.23,0,0,0,3.3-2.17,62,62,0,0,1,6.63-4.41c2.85-1.45,6.27-.85,7.38.83,1.33,2,.41,5.36-2.4,7.39a59.78,59.78,0,0,1-6.53,3.61c-2.48,1.35-5,2.58-7.39,4.12-.74.49-.93,1.83-1.36,2.78a7.92,7.92,0,0,0,2.78-.2c3.92-1.83,7.77-3.82,11.65-5.75a22,22,0,0,1,11.06-2.61c4.21.23,5.8,3.15,3.74,6.87A12.36,12.36,0,0,1,152.58,48c-4.52,1.69-9.1,3.24-13.6,5a54.39,54.39,0,0,0-7.2,3.4c-.59.34-.86,1.66-.81,2.5,0,.31,1.44.9,2.08.75a31.29,31.29,0,0,0,5.14-1.79c5.66-2.43,11.23-5.08,17-7.33A45.49,45.49,0,0,1,164.78,48c2.91-.44,5.81.34,7.23,3.28,1.34,2.79.67,5.55-1.22,8a16.86,16.86,0,0,1-9.22,5.64c-6.75,1.8-13.56,3.39-20.33,5.12a45.6,45.6,0,0,0-6.19,1.89c-.9.38-1.51,1.46-2.25,2.22,1.12.47,2.3,1.43,3.35,1.3a51.09,51.09,0,0,0,6.75-1.74c7.86-2.12,15.68-4.48,23.62-6.27a45.1,45.1,0,0,1,11.39-.65c2.6.09,5.56.66,6.32,3.88s.6,6.59-2.12,9.28a14.71,14.71,0,0,1-9,3.91c-10.24,1.19-20.51,2.1-30.75,3.26a33.4,33.4,0,0,0-7.71,1.81,4,4,0,0,0-1.88,2.93c-.06.51,1.6,1.73,2.5,1.76a39.65,39.65,0,0,0,8.44-.48c8-1.52,15.93-3.48,23.95-4.89a108.66,108.66,0,0,1,14.86-1.44A23.78,23.78,0,0,1,189.85,88a8.68,8.68,0,0,1,6.5,8.9,9.07,9.07,0,0,1-6.48,9,20.24,20.24,0,0,1-6.34,1c-6.31-.11-12.62-.52-18.93-.77-2-.09-4,0-6-.08-4.13-.21-8.28-.38-12.39-.81-3.86-.4-7.65-.57-11.31.94a10.78,10.78,0,0,0-3,1.75c-1.86,1.62-1.57,3.29.81,3.94a33.67,33.67,0,0,0,8.32,1.52c4.46.06,8.94-.43,13.41-.71,5-.31,9.94-.66,14.91-1s10-.91,14.93-.78a53.07,53.07,0,0,1,13.25,1.76c7,2,9.63,9.11,6.59,15.68-2.09,4.52-6.26,5.49-10.41,5.47a141.39,141.39,0,0,1-20.37-1.35c-11-1.69-21.89-4.05-32.82-6.13-3.88-.73-5.77-.21-6,1.65-.19,1.71,1.6,3,5.31,3.49,8.07,1.07,16.17,2,24.24,3.07,9.72,1.31,19.43,2.62,29.12,4.12,7.43,1.16,12.67,5.49,16.15,12.06Z"/><path class="cls-2" d="M124.38,7.81a29.48,29.48,0,0,1,1.29,5.05c.06.62-1.13,1.94-1.66,1.9a3.42,3.42,0,0,1-2.57-1.55,4.09,4.09,0,0,1,1.94-5.4Z"/></g></svg>